<?xml version="1.0" encoding="UTF-8"?>
<svg version="1.1" xmlns="http://www.w3.org/2000/svg" width="165" height="148">
<path d="M0 0 C54.45 0 108.9 0 165 0 C165 48.84 165 97.68 165 148 C110.55 148 56.1 148 0 148 C0 99.16 0 50.32 0 0 Z " fill="#2394DF" transform="translate(0,0)"/>
<path d="M0 0 C0.69416016 0.00580078 1.38832031 0.01160156 2.10351562 0.01757812 C5.10752079 0.1620298 7.06770578 0.34869798 9.46875 2.23046875 C9.8090625 2.71128906 10.149375 3.19210938 10.5 3.6875 C8.85 3.6875 7.2 3.6875 5.5 3.6875 C8.28114056 6.02141203 8.28114056 6.02141203 11.1875 5.3125 C11.950625 5.10625 12.71375 4.9 13.5 4.6875 C13.5 3.6975 13.5 2.7075 13.5 1.6875 C14.16 1.6875 14.82 1.6875 15.5 1.6875 C15.5 2.3475 15.5 3.0075 15.5 3.6875 C17.35546875 3.13411458 19.2109375 2.58072917 21.06640625 2.02734375 C30.76224629 0.67335004 40.38994516 6.55338958 47.9453125 12.140625 C62.21518758 23.35714807 73.92876845 39.63294051 77.5 57.6875 C77.6875 61.3125 77.6875 61.3125 77.5 63.6875 C76.84 63.6875 76.18 63.6875 75.5 63.6875 C75.25329246 67.86713515 75.25329246 67.86713515 76.5625 71.75 C77.82763276 74.3646077 77.2591193 75.95467051 76.5 78.6875 C75.18 78.6875 73.86 78.6875 72.5 78.6875 C72.17 78.3575 71.84 78.0275 71.5 77.6875 C70.51 79.6675 70.51 79.6675 69.5 81.6875 C69.17 78.0575 68.84 74.4275 68.5 70.6875 C67.51 70.6875 66.52 70.6875 65.5 70.6875 C64.51 68.3775 63.52 66.0675 62.5 63.6875 C56.20825163 68.84647548 56.20825163 68.84647548 53.5 76.1875 C53.5 77.3425 53.5 78.4975 53.5 79.6875 C52.015 80.1825 52.015 80.1825 50.5 80.6875 C48.20387244 69.16585991 48.20387244 69.16585991 48.5 63.6875 C47.18 63.6875 45.86 63.6875 44.5 63.6875 C44.066875 63.048125 43.63375 62.40875 43.1875 61.75 C40.71743208 58.73102809 38.28523129 59.13659524 34.5 58.6875 C29.02117732 56.51664573 29.02117732 56.51664573 27.125 53.5 C26.91875 52.901875 26.7125 52.30375 26.5 51.6875 C25.84 51.6875 25.18 51.6875 24.5 51.6875 C25.78432339 55.18455129 25.78432339 55.18455129 27.5 58.6875 C28.985 59.1825 28.985 59.1825 30.5 59.6875 C30.5 59.0275 30.5 58.3675 30.5 57.6875 C31.82 58.3475 33.14 59.0075 34.5 59.6875 C34.99193953 63.81979203 34.7100111 65.38148383 32.3125 68.875 C29.76113516 71.42636484 27.75922738 73.18324121 24.5 74.6875 C23.18 74.6875 21.86 74.6875 20.5 74.6875 C20.5 75.6775 20.5 76.6675 20.5 77.6875 C22.48 77.6875 24.46 77.6875 26.5 77.6875 C26.10079126 83.49417257 24.62567193 86.25476754 20.9375 90.6875 C16.11095522 96.90909567 16.03243664 101.55363121 16.57421875 109.4296875 C16.5 112.6875 16.5 112.6875 15.26953125 114.7578125 C13.74397414 116.14204722 12.12428226 117.42055984 10.5 118.6875 C9.76919734 120.66496603 9.10578253 122.66822489 8.5 124.6875 C4.23711202 132.90548622 4.23711202 132.90548622 -0.5 134.6875 C-4.1875 134.875 -4.1875 134.875 -7.5 134.6875 C-9.09964401 133.08785599 -9.04500265 131.13029514 -9.4375 128.9375 C-9.97528265 126.08684759 -10.50211163 123.68245555 -11.625 121 C-13.35251407 116.43442709 -12.52500476 111.83544813 -11.8125 107.125 C-11.26441768 102.72552843 -12.48480551 100.63728119 -14.5 96.6875 C-14.7626766 93.33837333 -14.67887585 90.03976592 -14.5 86.6875 C-16.12434497 86.51456593 -17.7495377 86.34959596 -19.375 86.1875 C-20.37660156 86.084375 -21.37820312 85.98125 -22.41015625 85.875 C-25.30835063 85.6991298 -27.93146004 85.90685075 -30.8125 86.1875 C-33.73210899 86.18284353 -35.07013833 85.99552463 -37.45703125 84.28515625 C-42.39353586 78.26192697 -42.51769869 71.05926696 -42.10546875 63.59765625 C-41.39756289 59.02595454 -40.31315191 57.03233532 -36.90234375 54.046875 C-34.71408509 51.92566605 -34.64316922 49.62246898 -34.5 46.6875 C-33.84 46.6875 -33.18 46.6875 -32.5 46.6875 C-32.5 46.0275 -32.5 45.3675 -32.5 44.6875 C-25.87384327 41.58883798 -20.82627475 40.21483711 -13.5 40.6875 C-13.520625 41.595 -13.54125 42.5025 -13.5625 43.4375 C-12.85746156 46.77263491 -12.85746156 46.77263491 -10.4296875 47.9765625 C-8.14298573 48.97296233 -5.85874454 49.87742612 -3.5 50.6875 C-3.5 49.6975 -3.5 48.7075 -3.5 47.6875 C0.79 48.0175 5.08 48.3475 9.5 48.6875 C10.16 46.3775 10.82 44.0675 11.5 41.6875 C9.8603125 41.8421875 9.8603125 41.8421875 8.1875 42 C6.970625 41.896875 5.75375 41.79375 4.5 41.6875 C2.5625 39.1875 2.5625 39.1875 1.5 36.6875 C0.51 37.1825 0.51 37.1825 -0.5 37.6875 C-1.15213292 39.71213255 -1.15213292 39.71213255 -1.5 41.6875 C-4.52907074 40.17296463 -5.07351392 37.51273161 -6.40234375 34.5 C-7.43798073 32.34835901 -7.43798073 32.34835901 -10.5 31.6875 C-10.005 32.30625 -9.51 32.925 -9 33.5625 C-7.5 35.6875 -7.5 35.6875 -7.5 37.6875 C-10.93595166 36.16041037 -13.61912454 34.08822955 -16.5 31.6875 C-20.04689059 33.41027543 -21.89077261 35.09226191 -23.9375 38.375 C-25.16796875 40.23046875 -25.16796875 40.23046875 -26.5 41.6875 C-29.75 42.1875 -29.75 42.1875 -32.5 41.6875 C-33.5 40.6875 -33.5 40.6875 -33.59765625 38.62109375 C-33.58605469 37.79738281 -33.57445312 36.97367188 -33.5625 36.125 C-33.55347656 35.29871094 -33.54445313 34.47242188 -33.53515625 33.62109375 C-33.52355469 32.98300781 -33.51195312 32.34492187 -33.5 31.6875 C-31.19 31.6875 -28.88 31.6875 -26.5 31.6875 C-27.015625 30.924375 -27.53125 30.16125 -28.0625 29.375 C-28.536875 28.488125 -29.01125 27.60125 -29.5 26.6875 C-28.5 23.6875 -28.5 23.6875 -26.03125 22.44140625 C-24.01130199 21.64748339 -21.99046691 20.85581375 -19.96875 20.06640625 C-17.3340221 18.93801196 -17.3340221 18.93801196 -16.65625 16.52734375 C-16.6046875 15.92019531 -16.553125 15.31304687 -16.5 14.6875 C-15.18 15.0175 -13.86 15.3475 -12.5 15.6875 C-12.5 14.6975 -12.5 13.7075 -12.5 12.6875 C-14.48 12.6875 -16.46 12.6875 -18.5 12.6875 C-18.83 11.3675 -19.16 10.0475 -19.5 8.6875 C-13.40546159 2.90285338 -8.38137229 -0.0837376 0 0 Z " fill="#A0E268" transform="translate(79.5,-0.6875)"/>
<path d="M0 0 C0.33 0 0.66 0 1 0 C1 21.78 1 43.56 1 66 C-14.18 66 -29.36 66 -45 66 C-41.53886068 63.23108854 -38.61797398 61.12183258 -34.875 58.9375 C-17.90152997 48.16938461 -6.40692384 30.19740185 -1.96875 10.71875 C-1.21954152 7.16103996 -0.58040066 3.58931987 0 0 Z " fill="#FCFDFE" transform="translate(164,82)"/>
<path d="M0 0 C0.33 0 0.66 0 1 0 C1.14695313 0.90878906 1.29390625 1.81757812 1.4453125 2.75390625 C5.7325901 26.77744453 17.45042592 45.70924791 37.17578125 60.16015625 C40.02942368 62.01916812 42.92481461 63.54189881 46 65 C46 65.33 46 65.66 46 66 C30.82 66 15.64 66 0 66 C0 44.22 0 22.44 0 0 Z " fill="#FCFDFE" transform="translate(0,82)"/>
<path d="M0 0 C15.18 0 30.36 0 46 0 C42.53886068 2.76891146 39.61797398 4.87816742 35.875 7.0625 C20.7242285 16.67427977 8.63737523 33.12295502 4.0703125 50.546875 C2.78769129 56.33699362 1.80521434 62.12491758 1 68 C0.67 68 0.34 68 0 68 C0 45.56 0 23.12 0 0 Z " fill="#FCFDFE" transform="translate(0,0)"/>
<path d="M0 0 C15.18 0 30.36 0 46 0 C46 22.44 46 44.88 46 68 C45.67 68 45.34 68 45 68 C44.85304687 66.87464844 44.70609375 65.74929687 44.5546875 64.58984375 C41.52149888 43.11985696 32.9302614 25.0691418 16 11 C12.40542805 8.43683637 8.68105997 6.09889879 4.90625 3.8125 C2 2 2 2 0 0 Z " fill="#FCFDFE" transform="translate(119,0)"/>
<path d="M0 0 C4.9723422 1.49170266 9.41845739 3.60457417 14 6 C14.31934435 10.68371709 13.76448211 12.35088361 11 16 C10.27518916 19.65274469 10.27518916 19.65274469 10 23 C6.93180822 20.39111837 5.55139854 17.37236871 3.875 13.75 C3.35679688 12.65171875 2.83859375 11.5534375 2.3046875 10.421875 C0.96540254 6.90925936 0.38798671 3.72845769 0 0 Z " fill="#9DE06A" transform="translate(6,93)"/>
<path d="M0 0 C7.92 0 15.84 0 24 0 C20.09224671 1.95387664 18.00312413 2.34762234 13.75 2.625 C12.67234375 2.69976562 11.5946875 2.77453125 10.484375 2.8515625 C9.66453125 2.90054687 8.8446875 2.94953125 8 3 C8 2.34 8 1.68 8 1 C7.34 1 6.68 1 6 1 C6 1.99 6 2.98 6 4 C4.68 4 3.36 4 2 4 C1.67 4.66 1.34 5.32 1 6 C-0.32 4.68 -1.64 3.36 -3 2 C-1.35 2 0.3 2 2 2 C1.34 1.34 0.68 0.68 0 0 Z " fill="#2E9AD7" transform="translate(87,0)"/>
<path d="M0 0 C0.66 0.33 1.32 0.66 2 1 C2.5625 2.890625 2.5625 2.890625 3 5.25 C3.54226917 7.98737477 4.09582574 10.22695571 5.1875 12.8125 C6.12524824 15.33720681 5.92169802 16.51141535 5 19 C1.94790814 16.45805606 0.95150719 13.78097935 -0.3125 10.0625 C-0.67988281 9.02222656 -1.04726563 7.98195313 -1.42578125 6.91015625 C-2 4 -2 4 -1.10546875 1.62109375 C-0.74066406 1.08613281 -0.37585938 0.55117187 0 0 Z " fill="#2295DD" transform="translate(5,92)"/>
<path d="M0 0 C0.66 0 1.32 0 2 0 C2.433125 0.61875 2.86625 1.2375 3.3125 1.875 C6.53912981 5.93816347 11.07266543 6.31246494 16 7 C15.38125 7.2475 14.7625 7.495 14.125 7.75 C11.64931313 9.20628639 11.04874998 10.37812506 10 13 C9.71125 12.030625 9.4225 11.06125 9.125 10.0625 C8.35785318 6.89335797 8.35785318 6.89335797 6 6 C6 6.66 6 7.32 6 8 C4.68 7.67 3.36 7.34 2 7 C1.34 4.69 0.68 2.38 0 0 Z " fill="#2F9BD5" transform="translate(104,51)"/>
<path d="M0 0 C0.66 0.33 1.32 0.66 2 1 C2 2.98 2 4.96 2 7 C1.01 7.33 0.02 7.66 -1 8 C-1.93065133 5.39417629 -2.14917407 4.35801776 -1.0625 1.75 C-0.711875 1.1725 -0.36125 0.595 0 0 Z " fill="#389FD2" transform="translate(5,92)"/>
<path d="M0 0 C2.4375 0.6875 2.4375 0.6875 5 2 C5.8125 4.625 5.8125 4.625 6 7 C1.125 2.25 1.125 2.25 0 0 Z " fill="#2E9BD5" transform="translate(67,29)"/>
</svg>
