<?xml version="1.0" encoding="UTF-8"?>
<svg version="1.1" xmlns="http://www.w3.org/2000/svg" width="740" height="938">
<path d="M0 0 C244.2 0 488.4 0 740 0 C740 309.54 740 619.08 740 938 C495.8 938 251.6 938 0 938 C0 628.46 0 318.92 0 0 Z " fill="#FEFEFE" transform="translate(0,0)"/>
<path d="M0 0 C0.97923279 1.54460144 0.97923279 1.54460144 1.83764648 3.56323242 C2.16486191 4.31879929 2.49207733 5.07436615 2.82920837 5.85282898 C3.17303055 6.6787001 3.51685272 7.50457123 3.87109375 8.35546875 C4.23469498 9.20869217 4.5982962 10.06191559 4.97291565 10.94099426 C5.74380656 12.7571813 6.50927167 14.57567927 7.26977539 16.39624023 C8.4163476 19.13693857 9.58257314 21.86857805 10.75195312 24.59960938 C27.70130631 64.54725564 23.17781489 102.5821271 7.421875 142.22265625 C4.53851942 149.23558458 1.37891428 156.12330571 -1.8125 163 C-2.09699005 163.61303986 -2.3814801 164.22607971 -2.67459106 164.85769653 C-7.53039004 175.28201602 -7.53039004 175.28201602 -9.60961914 178.4609375 C-15.17829391 188.630247 -13.34066283 206.08429908 -11 217 C-6.13212254 233.34504379 1.88830454 248.81731328 9.23242188 264.15625 C12.55311658 271.11405521 15.53793964 278.17005416 18.4375 285.3125 C22.28925751 294.63627914 26.24686266 303.91039861 30.25647163 313.16737938 C31.08276182 315.07590619 31.90791488 316.98492032 32.73265076 318.89411926 C33.00699605 319.52917106 33.28134134 320.16422285 33.56400013 320.81851864 C34.12164942 322.10942736 34.67925561 323.40035469 35.23681927 324.69130039 C36.89533929 328.52927423 38.56146902 332.36383363 40.23296642 336.19617176 C41.53175993 339.17998595 42.8195683 342.16854255 44.109375 345.15625 C44.58788406 346.24657028 45.06639313 347.33689056 45.55940247 348.46025085 C47.81441519 353.70920367 49.55038965 358.29473168 50 364 C50.30903983 365.33917261 50.62942911 366.67653254 51 368 C51.7223584 368.07259033 52.4447168 368.14518066 53.18896484 368.2199707 C56.79169621 369.21968642 58.34360043 370.84166018 60.9765625 373.48046875 C61.894375 374.39763672 62.8121875 375.31480469 63.7578125 376.25976562 C64.22864258 376.74098877 64.69947266 377.22221191 65.18457031 377.71801758 C66.6153817 379.1776877 68.06381843 380.61788455 69.515625 382.05664062 C80.40226329 393.04294532 80.40226329 393.04294532 80.5 401.375 C80.5309375 402.24898437 80.561875 403.12296875 80.59375 404.0234375 C79.11302147 411.44656341 73.45929501 416.95961624 68.1953125 422.0625 C67.5531076 422.69808838 66.91090271 423.33367676 66.24923706 423.98852539 C64.21489707 425.99968017 62.17062362 428.00032915 60.125 430 C58.08828775 432.00137115 56.05384833 434.00497694 54.02218628 436.01147461 C52.76437016 437.25263365 51.50346835 438.49067718 50.23880005 439.72485352 C46.4805906 443.4202587 42.99223873 447.25212991 39.61837769 451.30297852 C36.03904952 455.05624134 32.01732241 455.83852025 27.0625 456.625 C22.46805828 456.46379152 19.91105322 453.94895001 16.6640625 450.921875 C13.71709406 447.51833398 12.6248814 444.8918476 12.875 440.375 C13.441896 435.78079839 14.70568252 434.07321156 18.03125 430.9453125 C24.40087232 423.2821055 22.92459903 413.91667886 22.625 404.5 C22.60197384 402.65498822 22.58241638 400.80992975 22.56640625 398.96484375 C22.53954884 397.17443014 22.50970028 395.38405838 22.4765625 393.59375 C22.46178864 392.77990845 22.44701477 391.96606689 22.43179321 391.12756348 C22.23472282 385.07953584 21.22170173 380.10850864 20 374 C11.75 377.96 3.5 381.92 -5 386 C-7.9979405 383.0020595 -9.32260646 380.71502722 -11.1875 376.953125 C-11.4861647 376.35428497 -11.78482941 375.75544495 -12.09254456 375.13845825 C-13.06778343 373.17859336 -14.03403981 371.2144525 -15 369.25 C-15.67925658 367.87954675 -16.35886615 366.5092684 -17.03881836 365.13916016 C-21.39624924 356.34033344 -25.66049321 347.49879993 -29.86523438 338.62597656 C-33.47473956 331.0321943 -37.22282036 323.51151648 -41 316 C-46.7708966 304.52128533 -52.36978425 292.97063667 -57.86425781 281.35742188 C-58.97703398 279.04766979 -60.13525196 276.76585048 -61.3046875 274.484375 C-63 271 -63 271 -63 269 C-63.66 269 -64.32 269 -65 269 C-65.26103516 269.7130127 -65.52207031 270.42602539 -65.79101562 271.16064453 C-67.06347417 274.14907201 -68.58562336 276.69983952 -70.34375 279.4296875 C-71.00802002 280.46480469 -71.67229004 281.49992187 -72.35668945 282.56640625 C-73.06398193 283.65824219 -73.77127441 284.75007813 -74.5 285.875 C-75.23225064 287.01156695 -75.96426423 288.14828666 -76.69604492 289.28515625 C-80.90321096 295.81081432 -85.15798949 302.30299288 -89.48681641 308.74853516 C-97.18823729 320.21839324 -104.59297063 331.88256886 -111.94091797 343.58105469 C-112.41287598 344.33161133 -112.88483398 345.08216797 -113.37109375 345.85546875 C-113.78286865 346.51184326 -114.19464355 347.16821777 -114.61889648 347.84448242 C-116.37597917 350.58679868 -118.19337646 353.29006469 -120 356 C-125.28 354.68 -130.56 353.36 -136 352 C-136.515625 353.546875 -137.03125 355.09375 -137.5625 356.6875 C-137.85253906 357.55761719 -138.14257812 358.42773438 -138.44140625 359.32421875 C-139.20827228 362.99766793 -138.66546613 365.66906774 -137 369 C-136.86474543 371.55584504 -136.7873717 374.08316441 -136.76171875 376.640625 C-136.753647 377.40042664 -136.74557526 378.16022827 -136.73725891 378.9430542 C-136.72341862 380.55364705 -136.71269621 382.16426922 -136.70483398 383.77490234 C-136.6876624 386.2268111 -136.64378366 388.6773566 -136.59960938 391.12890625 C-136.58947844 392.6953026 -136.58096359 394.26171041 -136.57421875 395.828125 C-136.55671066 396.55646545 -136.53920258 397.28480591 -136.52116394 398.03521729 C-136.54289471 403.18881442 -137.78216966 406.02286532 -141 410 C-146.5033466 415.26407066 -151.33158462 417.23269023 -158.91015625 417.29052734 C-160.05154053 417.30328705 -161.1929248 417.31604675 -162.36889648 417.32919312 C-163.58778564 417.33141876 -164.8066748 417.33364441 -166.0625 417.3359375 C-167.32715088 417.3425943 -168.59180176 417.3492511 -169.89477539 417.35610962 C-172.56443408 417.36621947 -175.23368517 417.37179422 -177.90332031 417.37060547 C-181.31299009 417.37040199 -184.72182909 417.39774922 -188.13130188 417.43214989 C-191.40000302 417.45980941 -194.66869775 417.45856873 -197.9375 417.4609375 C-199.15638916 417.47530853 -200.37527832 417.48967957 -201.63110352 417.50448608 C-208.04107853 417.46992959 -212.17889134 417.41361982 -217 413 C-220.36335215 409.27304221 -221.83604634 406.73790876 -222.3125 401.6875 C-221.8426577 396.14336081 -219.47427976 393.29877026 -215.375 389.6875 C-211.56118601 386.9776848 -211.56118601 386.9776848 -208.34765625 387.10546875 C-203.01452413 387.23863852 -199.35859526 387.07669129 -195.08203125 383.6875 C-192.67764686 381.15961593 -190.51571252 378.44246767 -188.36914062 375.69482422 C-186.54914143 373.44189369 -184.57200781 371.3665081 -182.57324219 369.27270508 C-174.57666786 360.86497849 -170.28819253 352.78174122 -166 342 C-171.94 340.515 -171.94 340.515 -178 339 C-177.41207996 333.80719726 -176.19969294 329.13032543 -174.45703125 324.19921875 C-174.18483765 323.41044846 -173.91264404 322.62167816 -173.63220215 321.80900574 C-173.02377968 320.04634973 -172.41273071 318.28459879 -171.79946899 316.52362061 C-170.01736402 311.40262425 -168.2582138 306.27377098 -166.5 301.14453125 C-166.09380936 299.96004395 -165.68761871 298.77555664 -165.26911926 297.55517578 C-161.25830853 285.83387216 -157.34612152 274.07991744 -153.4375 262.32421875 C-153.10572943 261.3266902 -152.77395885 260.32916164 -152.43213463 259.30140495 C-149.38059898 250.12568154 -146.33131761 240.94921209 -143.28848267 231.77059937 C-141.66496871 226.87332836 -140.03866198 221.97699248 -138.41059875 217.08123207 C-137.804976 215.25806535 -137.20046818 213.43452781 -136.59718323 211.61058617 C-127.00706792 182.61821241 -127.00706792 182.61821241 -121.0625 174.0625 C-120.08729589 172.60630227 -119.11340275 171.14922597 -118.140625 169.69140625 C-117.62951172 168.93230957 -117.11839844 168.17321289 -116.59179688 167.39111328 C-113.76132426 163.13932666 -111.04375898 158.81590633 -108.3125 154.5 C-107.13457608 152.64554012 -105.95617949 150.7913804 -104.77734375 148.9375 C-104.17003418 147.98230469 -103.56272461 147.02710938 -102.93701172 146.04296875 C-99.42380938 140.52386692 -95.90018643 135.01145082 -92.375 129.5 C-91.69993408 128.44361328 -91.02486816 127.38722656 -90.3293457 126.29882812 C-89.692146 125.30302734 -89.05494629 124.30722656 -88.3984375 123.28125 C-87.83817871 122.40533203 -87.27791992 121.52941406 -86.70068359 120.62695312 C-85 118 -85 118 -82.94404602 115.30726624 C-80.66330024 111.42719682 -80.39588163 108.93245273 -80.19458008 104.45678711 C-80.15658798 103.72576782 -80.11859589 102.99474854 -80.07945251 102.24157715 C-79.95876089 99.83731103 -79.86410464 97.43276668 -79.76953125 95.02734375 C-79.6896274 93.34062365 -79.60803066 91.65398298 -79.52482605 89.96742249 C-79.31017015 85.52940553 -79.11730533 81.09070825 -78.92938232 76.65148926 C-78.69872442 71.29564882 -78.44258654 65.94098078 -78.19035625 60.58612156 C-77.99418723 56.41060235 -77.80157046 52.23502889 -77.62055969 48.05882263 C-77.23918582 39.35502238 -76.74297351 30.68194368 -76 22 C-60.53576956 16.77114055 -45.02378649 11.72722405 -29.41918945 6.93286133 C-26.11342871 5.91468602 -22.81169953 4.8840247 -19.50976562 3.85351562 C-17.3960683 3.20236179 -15.28214491 2.55194122 -13.16796875 1.90234375 C-11.69640572 1.44008644 -11.69640572 1.44008644 -10.19511414 0.9684906 C-9.29178848 0.69392532 -8.38846283 0.41936005 -7.45776367 0.13647461 C-6.66633469 -0.10808975 -5.8749057 -0.35265411 -5.05949402 -0.60462952 C-3 -1 -3 -1 0 0 Z " fill="#3D3D3D" transform="translate(379,424)"/>
<path d="M0 0 C2.16348022 0.01612168 4.32510048 0.00004392 6.48852539 -0.01904297 C19.46533643 -0.03981417 30.24984093 1.83125534 40.12719727 10.77392578 C43.55284531 14.75142595 44.4523832 19.38293677 45.59985352 24.39111328 C47.55527044 32.89191937 49.51142275 37.60592187 56.91235352 42.39111328 C60.67421187 44.5222707 64.51783532 46.21222574 68.51000977 47.84448242 C78.54738835 51.97083 87.20620353 56.9087323 91.59985352 67.39111328 C92.87364699 74.50599575 91.10258223 81.16850067 87.59985352 87.39111328 C86.0004351 89.46087597 84.31989674 91.41719967 82.59985352 93.39111328 C82.05047119 93.14353271 81.50108887 92.89595215 80.93505859 92.64086914 C78.43344828 91.52285901 75.92323409 90.4256355 73.41235352 89.32861328 C72.11587891 88.74370117 72.11587891 88.74370117 70.79321289 88.14697266 C69.95209961 87.7828125 69.11098633 87.41865234 68.24438477 87.04345703 C67.47457275 86.70306396 66.70476074 86.3626709 65.91162109 86.01196289 C61.07934827 84.71420496 57.14860553 86.98853054 52.78735352 88.95361328 C45.00575237 92.02366345 34.91974367 93.57383292 26.94360352 90.30126953 C23.21714533 88.8541616 20.44426784 90.04877913 16.82910156 91.5144043 C15.84981689 91.97000732 14.87053223 92.42561035 13.86157227 92.89501953 C12.79487305 93.38808594 11.72817383 93.88115234 10.62915039 94.38916016 C8.97496094 95.16356445 8.97496094 95.16356445 7.28735352 95.95361328 C6.16522461 96.47375 5.0430957 96.99388672 3.88696289 97.52978516 C1.12232401 98.81210702 -1.63990414 100.09936175 -4.40014648 101.39111328 C-6.81295078 97.77190683 -7.57335894 94.18987792 -8.52514648 90.01611328 C-8.7069043 89.26072266 -8.88866211 88.50533203 -9.07592773 87.72705078 C-9.97078602 83.87848731 -10.63802558 80.37162351 -10.40014648 76.39111328 C-11.28702148 76.28798828 -12.17389648 76.18486328 -13.08764648 76.07861328 C-20.34061367 74.57328047 -25.92515964 69.59257502 -30.02514648 63.57861328 C-32.40014648 59.76680389 -32.40014648 59.76680389 -32.40014648 57.39111328 C-33.39014648 57.37048828 -34.38014648 57.34986328 -35.40014648 57.32861328 C-40.67927052 56.54691743 -43.99269404 53.30857488 -47.40014648 49.39111328 C-52.03205264 42.72220638 -52.46668349 35.27964375 -51.40014648 27.39111328 C-48.76857584 18.12110814 -41.87601573 11.89322423 -33.95092773 6.82470703 C-23.21527659 1.03333323 -11.98315097 -0.10603355 0 0 Z " fill="#3D3D3D" transform="translate(285.400146484375,198.60888671875)"/>
<path d="M0 0 C4.54252235 2.01348177 8.75232018 4.5615835 13 7.125 C14.23585574 7.85368254 15.47268717 8.58071264 16.71044922 9.30615234 C19.24167601 10.79293314 21.76708497 12.28891655 24.28808594 13.79296875 C28.85240138 16.51319736 33.45010159 19.17436774 38.046875 21.83935547 C40.95366926 23.52560969 43.85726071 25.2170955 46.7578125 26.9140625 C47.62696289 27.41969727 48.49611328 27.92533203 49.39160156 28.44628906 C51.19822026 29.52241424 52.98575762 30.63098265 54.75683594 31.76464844 C55.63887695 32.32442383 56.52091797 32.88419922 57.4296875 33.4609375 C58.21327637 33.97188965 58.99686523 34.4828418 59.80419922 35.00927734 C61.93435229 36.19821886 61.93435229 36.19821886 64.17602539 35.73803711 C66.34597418 34.86000804 67.78287766 33.70575232 69.5625 32.1875 C78.52470303 25.33793415 87.91997815 23.94475982 99 25 C105.8514735 26.22854008 111.39050486 28.9446507 117 33 C118.03125 33.7425 119.0625 34.485 120.125 35.25 C128.18957896 42.96394509 131.89482681 51.71221182 132.45385742 62.7980957 C132.69806909 73.79020484 129.83590605 82.03997801 122.6875 90.4375 C114.88306196 98.47337113 104.92202957 104.07903402 93.5 104.4375 C80.48656369 103.86283258 70.7432572 98.55701195 61.79296875 89.28515625 C57.11263414 83.32002391 53.88000604 75.63502631 53.8671875 67.99609375 C53.86589844 67.25552734 53.86460937 66.51496094 53.86328125 65.75195312 C53.86714844 64.98818359 53.87101563 64.22441406 53.875 63.4375 C53.87113281 62.66986328 53.86726562 61.90222656 53.86328125 61.11132812 C53.869019 57.82072861 53.95252969 55.14241093 55 52 C53.95779297 51.60167969 53.95779297 51.60167969 52.89453125 51.1953125 C49.74323924 49.89396924 46.72999829 48.41296617 43.6875 46.875 C42.61886719 46.33617187 41.55023437 45.79734375 40.44921875 45.2421875 C39.64097656 44.83226562 38.83273437 44.42234375 38 44 C37.70351563 44.77730469 37.40703125 45.55460937 37.1015625 46.35546875 C35.78786396 49.50927695 34.79676763 51.012823 32 53 C27.04063697 53.78720048 27.04063697 53.78720048 24 53 C20.9375 50.4375 20.9375 50.4375 19 47 C19.08285539 42.36009803 20.41259245 38.33891397 22 34 C20.906875 33.34 19.81375 32.68 18.6875 32 C18.07261719 31.62875 17.45773437 31.2575 16.82421875 30.875 C14.88638074 29.78376001 14.88638074 29.78376001 12 30 C10.36478449 32.43504919 8.91462411 34.81653792 7.5 37.375 C6.7249909 38.7613199 5.94395452 40.14429154 5.15625 41.5234375 C4.81400391 42.14138184 4.47175781 42.75932617 4.11914062 43.39599609 C3 45 3 45 0 47 C-4.1167938 47.64039015 -5.75125073 47.14740698 -9.375 45 C-11.975823 42.02763085 -13.00133735 40.43964997 -12.7421875 36.4609375 C-11.32835676 31.77297241 -8.4570272 27.79124688 -5.75 23.7578125 C-3.82140278 21.26291576 -3.82140278 21.26291576 -4 19 C-4.928125 18.38125 -5.85625 17.7625 -6.8125 17.125 C-11.56338028 13.95774648 -11.56338028 13.95774648 -13 11 C-12.93172242 7.17645571 -12.50774917 4.7920887 -10.4375 1.5625 C-6.90537379 -0.70168347 -4.01124706 -0.79159558 0 0 Z " fill="#3F3F3F" transform="translate(506,67)"/>
<path d="M0 0 C0.89783203 0.46535156 1.79566406 0.93070312 2.72070312 1.41015625 C7.94338256 4.22923823 11.16852598 6.44737552 13.9375 11.75 C11.39042605 13.4480493 9.95314641 14.17131841 7.12231445 14.9675293 C6.3582579 15.18529022 5.59420135 15.40305115 4.80699158 15.62741089 C3.97994217 15.85735748 3.15289276 16.08730408 2.30078125 16.32421875 C1.43759781 16.56882843 0.57441437 16.81343811 -0.31492615 17.06546021 C-3.12530377 17.86087591 -5.93764542 18.64910595 -8.75 19.4375 C-10.68425668 19.98400136 -12.61833846 20.53112215 -14.55224609 21.07885742 C-17.4273054 21.89309351 -20.3024525 22.70699775 -23.17816162 23.51893616 C-31.12248071 25.76208061 -39.05752045 28.03485206 -46.96923828 30.39086914 C-51.63612026 31.77670288 -56.30636213 33.07957894 -61.02734375 34.26953125 C-75.3024623 37.96913377 -87.07150644 43.66663261 -99.65014648 51.31640625 C-111.59863463 58.41705622 -111.59863463 58.41705622 -119.0625 56.75 C-123.65633119 54.62417004 -127.08668892 52.05108144 -130.125 48 C-131.77017769 42.29671733 -131.85169814 37.07375008 -129.9375 31.4375 C-125.87016778 25.60765715 -121.81205007 23.24425047 -114.94140625 21.77734375 C-113.46299227 21.44231123 -111.98481527 21.10623188 -110.50683594 20.76928711 C-109.71563354 20.5947702 -108.92443115 20.4202533 -108.10925293 20.240448 C-87.81196895 15.72265417 -68.0864036 9.5524826 -48.3125 3.1875 C-47.60113514 2.95860455 -46.88977028 2.72970909 -46.15684891 2.49387741 C-40.13524855 0.55546666 -34.1142345 -1.38467115 -28.0990448 -3.34289551 C-26.96582291 -3.7112854 -25.83260101 -4.07967529 -24.66503906 -4.45922852 C-23.18055267 -4.9436013 -23.18055267 -4.9436013 -21.66607666 -5.4377594 C-12.91996639 -8.16629279 -7.79068832 -4.19023323 0 0 Z " fill="#747474" transform="translate(287.0625,426.25)"/>
<path d="M0 0 C1.52954102 2.70410156 1.52954102 2.70410156 3.00390625 6.390625 C3.2794635 7.06586212 3.55502075 7.74109924 3.83892822 8.4367981 C4.44146553 9.91826349 5.03696149 11.40260702 5.62637329 12.88934326 C6.57611289 15.284328 7.54353991 17.67143189 8.51635742 20.05712891 C9.56164462 22.62106927 10.60574788 25.18543114 11.64460754 27.75198364 C15.53825608 37.36825662 19.55742967 46.93076282 23.59420776 56.4876709 C24.77499316 59.28610951 25.95050482 62.08671433 27.12524414 64.88769531 C27.88105051 66.68320494 28.63747364 68.47845508 29.39453125 70.2734375 C29.76228165 71.14705933 30.13003204 72.02068115 30.50892639 72.92077637 C32.51967182 77.65601851 34.6085424 82.34169883 36.79833984 86.99707031 C37.49270393 88.4815416 37.49270393 88.4815416 38.20109558 89.9960022 C39.09265544 91.89067959 39.99560948 93.7800524 40.91181946 95.66293335 C43.58328257 101.34177869 45.21590277 106.01265404 43.30078125 112.29296875 C40.34113452 117.96659983 36.93422787 121.39553333 31 124 C26.10890424 124.87340996 22.02177895 124.40034262 17.6875 121.9375 C12.90556005 118.59395235 10.83404748 114.50214243 9 109 C9.03608172 106.95440217 9.12668887 104.90961616 9.24609375 102.8671875 C9.92631587 82.1810527 5.16841198 68.00932684 -4.74420166 50.0144043 C-8.26225469 43.6206225 -11.3504449 37.0626494 -14.36975098 30.42175293 C-15.64411069 27.62173791 -16.93940371 24.83140554 -18.23046875 22.0390625 C-20.83683208 16.366872 -23.42313839 10.68564744 -26 5 C-4.0786706 -1.97958865 -4.0786706 -1.97958865 0 0 Z " fill="#747474" transform="translate(434,398)"/>
<path d="M0 0 C5.70589472 -0.45647158 8.60098008 0.30082416 13 4 C15.61989602 7.64703201 16.37339834 10.1742924 16.40625 14.640625 C16.42816406 15.71183594 16.45007813 16.78304687 16.47265625 17.88671875 C16.48167969 18.99660156 16.49070312 20.10648437 16.5 21.25 C16.56408488 29.0225807 16.86053352 35.80569567 20 43 C20.4630957 44.07362793 20.4630957 44.07362793 20.93554688 45.16894531 C22.43154443 47.74233561 24.23732681 48.12757689 27 49 C23.96252955 51.4545534 20.91326204 53.09240812 17.359375 54.69921875 C16.28945313 55.18583984 15.21953125 55.67246094 14.1171875 56.17382812 C13.00601563 56.67333984 11.89484375 57.17285156 10.75 57.6875 C9.62335938 58.19861328 8.49671875 58.70972656 7.3359375 59.23632812 C4.55923437 60.49525708 1.7805667 61.74963335 -1 63 C-3.4128043 59.38079355 -4.17321246 55.79876463 -5.125 51.625 C-5.39763672 50.49191406 -5.39763672 50.49191406 -5.67578125 49.3359375 C-6.57063954 45.48737403 -7.2378791 41.98051023 -7 38 C-7.88816406 37.89429688 -8.77632813 37.78859375 -9.69140625 37.6796875 C-17.50076555 36.07540354 -22.89199072 30.727628 -27.1875 24.25 C-28.91796875 21.453125 -28.91796875 21.453125 -30 19 C-29.505 17.515 -29.505 17.515 -29 16 C-28.39414063 16.05800781 -27.78828125 16.11601562 -27.1640625 16.17578125 C-18.86944957 16.62241425 -12.96649516 14.35877844 -6.62890625 8.9921875 C-2.47742516 5.04902585 -2.47742516 5.04902585 0 0 Z " fill="#737373" transform="translate(282,237)"/>
<path d="M0 0 C4.88207207 2.8334364 8.13374797 7.51749594 10.625 12.5 C11.30788157 19.93365369 11.78315081 26.73133778 7.1171875 32.88671875 C2.23434817 38.16580944 -2.33683716 41.51041797 -9.6875 41.8125 C-16.34635821 41.61372811 -21.25470409 39.84198555 -26.1875 35.3125 C-30.41150083 30.73167718 -32.02050536 26.23467296 -32.8125 20.125 C-31.88458647 12.43657359 -29.35789209 6.52810877 -23.25390625 1.65625 C-16.3596182 -2.5863888 -7.48331366 -3.25862984 0 0 Z " fill="#FCFCFC" transform="translate(609.375,111.5)"/>
<path d="M0 0 C4.06378424 1.12039539 8.12578743 2.24711949 12.1875 3.375 C13.91323242 3.85066406 13.91323242 3.85066406 15.67382812 4.3359375 C16.78564453 4.6453125 17.89746094 4.9546875 19.04296875 5.2734375 C20.06414795 5.55622559 21.08532715 5.83901367 22.13745117 6.13037109 C24.83316276 6.94931563 27.40312193 7.91118847 30 9 C29.7834375 9.73605469 29.566875 10.47210937 29.34375 11.23046875 C29.0653125 12.20628906 28.786875 13.18210937 28.5 14.1875 C28.2215625 15.15042969 27.943125 16.11335937 27.65625 17.10546875 C27.03322392 19.85345876 26.87697188 22.19598416 27 25 C25.9275 24.979375 24.855 24.95875 23.75 24.9375 C20.27180763 24.84936204 20.27180763 24.84936204 18.0625 25.5 C11.66686148 27.05045782 6.74581747 26.03552621 1 23 C-0.68889872 21.6949419 -2.3603279 20.36639342 -4 19 C-4.99 18.67 -5.98 18.34 -7 18 C-6.58979123 16.68546734 -6.17131747 15.37351447 -5.75 14.0625 C-5.51796875 13.33160156 -5.2859375 12.60070312 -5.046875 11.84765625 C-3.56245102 7.80980148 -1.77865533 3.91549724 0 0 Z " fill="#737373" transform="translate(213,766)"/>
<path d="M0 0 C3.375 4.5 3.375 4.5 4 8 C5.32 8.33 6.64 8.66 8 9 C6.96875 9.165 5.9375 9.33 4.875 9.5 C0.50640276 10.72180084 -1.05521827 13.36715564 -3.5625 16.96484375 C-6.70736287 21.41721754 -8.9970862 23.54294321 -14.26953125 24.74609375 C-17.50021795 25.25362308 -20.75009929 25.63521523 -24 26 C-25.32 21.71 -26.64 17.42 -28 13 C-18.76 8.71 -9.52 4.42 0 0 Z " fill="#727272" transform="translate(426,784)"/>
</svg>
