<?xml version="1.0" encoding="UTF-8"?>
<svg version="1.1" xmlns="http://www.w3.org/2000/svg" width="275" height="183">
<path d="M0 0 C90.75 0 181.5 0 275 0 C275 60.39 275 120.78 275 183 C184.25 183 93.5 183 0 183 C0 122.61 0 62.22 0 0 Z " fill="#D4D4D4" transform="translate(0,0)"/>
<path d="M0 0 C3.40353022 1.47122616 5.61255749 3.36942513 8.21777344 5.99072266 C9.03832214 6.81142242 9.85887085 7.63212219 10.70428467 8.47769165 C11.58046448 9.36419403 12.45664429 10.25069641 13.359375 11.1640625 C14.26375305 12.07127045 15.1681311 12.97847839 16.09991455 13.91317749 C18.49796458 16.31884419 20.88994618 18.73045736 23.28070068 21.14337158 C25.72385171 23.60702344 28.17271206 26.06498577 30.62109375 28.5234375 C35.41933788 33.34373573 40.21182732 38.16969843 45 43 C50.55439924 38.37508621 55.68525669 33.44639036 60.77734375 28.3203125 C61.58869278 27.50754852 62.40004181 26.69478455 63.23597717 25.85739136 C65.8055259 23.28228262 68.37155968 20.7037038 70.9375 18.125 C72.68791929 16.36956054 74.438568 14.61434983 76.18945312 12.859375 C80.46229302 8.57555918 84.73225899 4.28889528 89 0 C91.79570164 1.34727261 93.83967803 2.59706233 96.015625 4.8203125 C96.80839844 5.62275391 96.80839844 5.62275391 97.6171875 6.44140625 C98.15601563 6.99699219 98.69484375 7.55257812 99.25 8.125 C99.80429688 8.68832031 100.35859375 9.25164063 100.9296875 9.83203125 C102.29104485 11.21686028 103.64614859 12.60783204 105 14 C99.94044604 20.16250171 94.37581637 25.77695405 88.73291016 31.39746094 C87.13198611 32.99303722 85.53646316 34.5938734 83.94140625 36.1953125 C78.99702951 41.14223492 74.03461498 46.01385491 68.66552734 50.50610352 C65.79715084 53.0788968 63.43338319 56.01910559 61 59 C62.83005083 60.8575016 64.66392011 62.71097232 66.5 64.5625 C67.0053125 65.07619141 67.510625 65.58988281 68.03125 66.11914062 C70.80486973 68.91009548 73.6312253 71.57100425 76.625 74.125 C82.54947606 79.24927417 87.98639676 84.8804632 93.5 90.4375 C94.61955632 91.5620833 95.73934629 92.68643405 96.859375 93.81054688 C99.57561534 96.53769344 102.28868292 99.26795907 105 102 C101.66883385 105.95374187 98.31571444 109.81041857 94.625 113.4375 C93.93664062 114.11683594 93.24828125 114.79617187 92.5390625 115.49609375 C91.77722656 116.24052734 91.77722656 116.24052734 91 117 C84.78114756 112.64350382 79.45045376 107.71734119 74.125 102.3203125 C73.31506592 101.50754852 72.50513184 100.69478455 71.6706543 99.85739136 C69.10899596 97.28462309 66.55441684 94.70495619 64 92.125 C62.25437106 90.3693294 60.50828179 88.61411636 58.76171875 86.859375 C54.50247533 82.57819321 50.24900727 78.29133991 46 74 C40.73399395 78.39233361 35.86182057 83.03138501 31.0546875 87.91796875 C29.55091471 89.43437715 28.0470044 90.95064919 26.54296875 92.46679688 C24.19971568 94.83492577 21.85810471 97.20463515 19.51904297 99.5769043 C17.24365854 101.88249715 14.96208949 104.18182566 12.6796875 106.48046875 C11.98374481 107.18987106 11.28780212 107.89927338 10.57077026 108.63017273 C9.91303619 109.29128555 9.25530212 109.95239838 8.57763672 110.63354492 C8.00584686 111.21279221 7.43405701 111.79203949 6.84494019 112.38883972 C5 114 5 114 0 117 C-4.62 112.38 -9.24 107.76 -14 103 C-10.20210738 98.56912527 -6.5417375 94.41393023 -2.4453125 90.3125 C-1.68744949 89.5532019 -1.68744949 89.5532019 -0.91427612 88.77856445 C0.14495233 87.71866181 1.20541921 86.65999543 2.26708984 85.60253906 C3.86801389 84.00696278 5.46353684 82.4061266 7.05859375 80.8046875 C12.00297049 75.85776508 16.96538502 70.98614509 22.33447266 66.49389648 C25.20284916 63.9211032 27.56661681 60.98089441 30 58 C28.16994917 56.1424984 26.33607989 54.28902768 24.5 52.4375 C23.9946875 51.92380859 23.489375 51.41011719 22.96875 50.88085938 C20.19513027 48.08990452 17.3687747 45.42899575 14.375 42.875 C8.45052394 37.75072583 3.01360324 32.1195368 -2.5 26.5625 C-3.61955632 25.4379167 -4.73934629 24.31356595 -5.859375 23.18945312 C-8.57561534 20.46230656 -11.28868292 17.73204093 -14 15 C-10.66883385 11.04625813 -7.31571444 7.18958143 -3.625 3.5625 C-2.93664062 2.88316406 -2.24828125 2.20382813 -1.5390625 1.50390625 C-1.03117187 1.00761719 -0.52328125 0.51132812 0 0 Z " fill="#FEFEFE" transform="translate(92,33)"/>
</svg>
